<svg xmlns="http://www.w3.org/2000/svg" xmlns:xlink="http://www.w3.org/1999/xlink" viewBox="0 0 10 10"><defs><linearGradient id="a"><stop offset="0" stop-color="#dc0ff0"/><stop offset="1" stop-color="#914dff"/></linearGradient><linearGradient xlink:href="#a" id="b" x1="243.248" x2="243.27" y1="129.582" y2="120.998" gradientTransform="matrix(1.05815 0 0 1 -13.87 0)" gradientUnits="userSpaceOnUse"/></defs><path fill="url(#b)" d="M238.523 119.582h10v10h-10z" transform="translate(-238.523 -119.582)"/><path fill="#fff" d="M5 5.735q.331 0 .564-.228.233-.228.233-.569 0-.331-.233-.564-.233-.233-.564-.233-.331 0-.564.233-.233.233-.233.564 0 .34.233.57.233.227.564.227zm0 2.258q.421-.144.86-.453.439-.309.707-.703l-.824-.788q-.17.098-.358.161-.188.063-.385.063-.555 0-.945-.385-.39-.385-.39-.95 0-.555.39-.945.39-.39.945-.39.555 0 .945.39.39.39.39.954 0 .188-.054.376-.054.189-.17.34l.752.717q.215-.385.34-.846.126-.461.126-.945V2.816L5 1.965l-2.329.85V4.59q0 1.173.65 2.118Q3.97 7.652 5 7.992zm0 .555q-1.254-.314-2.06-1.456T2.134 4.59V2.457L5 1.383l2.866 1.074V4.59q0 1.361-.806 2.503Q6.254 8.234 5 8.548zm0-3.574z"/></svg>